<svg xmlns="http://www.w3.org/2000/svg" viewBox="0 0 390 780" role="img" aria-labelledby="title desc">
  <title id="title">Chroma screenshot placeholder</title>
  <desc id="desc">A placeholder screenshot showing Chroma mode.</desc>
  <rect width="390" height="780" rx="38" fill="#111827"/>
  <rect x="16" y="18" width="358" height="744" rx="30" fill="#F6F7FB"/>
  <rect x="137" y="30" width="116" height="18" rx="9" fill="#111827"/>
  <g transform="translate(28 64)">
    <rect width="334" height="48" rx="18" fill="#FFFFFF" stroke="#E6E8F0"/>
    <text x="42" y="29" text-anchor="middle" fill="#6B7280" font-family="Arial, sans-serif" font-size="12" font-weight="800">9:16</text>
    <text x="104" y="29" text-anchor="middle" fill="#6B7280" font-family="Arial, sans-serif" font-size="12" font-weight="800">16:9</text>
    <text x="158" y="29" text-anchor="middle" fill="#6B7280" font-family="Arial, sans-serif" font-size="12" font-weight="800">PiP</text>
    <rect x="198" y="10" width="84" height="28" rx="14" fill="#1EC8C1"/>
    <text x="240" y="29" text-anchor="middle" fill="#003C3A" font-family="Arial, sans-serif" font-size="12" font-weight="900">Chroma</text>
  </g>
  <g transform="translate(38 132)">
    <rect width="314" height="430" rx="24" fill="#111827"/>
    <rect x="12" y="12" width="290" height="406" rx="18" fill="#1EC8C1"/>
    <path d="M12 288c74-40 116-28 170-70 35-27 72-38 120-20v220H12Z" fill="#6C2CF1" opacity=".78"/>
    <circle cx="189" cy="179" r="54" fill="#FFD43B"/>
    <path d="M138 306c10-56 28-88 51-88s44 33 55 88v46H138v-46Z" fill="#FFFFFF"/>
    <circle cx="189" cy="176" r="26" fill="#FF4D6D"/>
    <rect x="72" y="31" width="170" height="30" rx="15" fill="#FFFFFF" opacity=".9"/>
    <text x="157" y="52" text-anchor="middle" fill="#006A66" font-family="Arial, sans-serif" font-size="12" font-weight="900">Transparent reaction layer</text>
  </g>
  <g transform="translate(54 590)">
    <rect width="282" height="56" rx="18" fill="#FFFFFF" stroke="#E6E8F0"/>
    <rect x="18" y="14" width="78" height="28" rx="14" fill="#FFD43B"/>
    <text x="57" y="33" text-anchor="middle" fill="#3D3200" font-family="Arial, sans-serif" font-size="11" font-weight="900">Premium</text>
    <text x="158" y="33" text-anchor="middle" fill="#6B7280" font-family="Arial, sans-serif" font-size="12" font-weight="800">Hold and drag</text>
  </g>
  <text x="195" y="704" text-anchor="middle" fill="#6B7280" font-family="Arial, sans-serif" font-size="17" font-weight="800">CHROMA PLACEHOLDER</text>
</svg>
